<?xml version="1.0" encoding="iso-8859-1"?>
<!-- Uploaded to: SVG Repo, www.svgrepo.com, Generator: SVG Repo Mixer Tools -->
<!DOCTYPE svg PUBLIC "-//W3C//DTD SVG 1.1//EN" "http://www.w3.org/Graphics/SVG/1.1/DTD/svg11.dtd">
<svg height="800px" width="800px" version="1.1" id="Capa_1" xmlns="http://www.w3.org/2000/svg" xmlns:xlink="http://www.w3.org/1999/xlink" 
	 viewBox="0 0 415.59 415.59" xml:space="preserve">
<g>
	<path style="fill:none;" d="M207.795,24C106.451,24,24,106.45,24,207.793c0,101.346,82.451,183.797,183.795,183.797
		c101.344,0,183.795-82.451,183.795-183.797C391.59,106.45,309.139,24,207.795,24z M322.508,109.027l-0.098,0.181
		c-0.137,0.283-0.287,0.558-0.445,0.83l-72.305,134.701c-1.115,2.073-2.814,3.773-4.889,4.887l-135.131,72.572
		c-0.048,0.026-0.096,0.053-0.145,0.078l-0.051,0.027l-0.002-0.003c-3.391,1.735-7.548,1.836-11.156-0.105
		c-1.06-0.569-2-1.275-2.809-2.085c-3.648-3.648-4.648-9.389-2.08-14.166l72.596-135.034c1.114-2.073,2.813-3.773,4.887-4.888
		l135.065-72.625c5.838-3.139,13.113-0.952,16.252,4.887c1.861,3.463,1.836,7.427,0.299,10.738L322.508,109.027z"/>
	<polygon style="fill:none;" points="133.371,282.278 219.172,236.141 179.502,196.47 	"/>
	<path style="fill:#ffff;" d="M207.795,0C93.217,0,0,93.216,0,207.793C0,322.372,93.217,415.59,207.795,415.59
		c114.578,0,207.795-93.218,207.795-207.797C415.59,93.216,322.374,0,207.795,0z M207.795,391.59
		C106.451,391.59,24,309.139,24,207.793C24,106.45,106.451,24,207.795,24C309.139,24,391.59,106.45,391.59,207.793
		C391.59,309.139,309.139,391.59,207.795,391.59z"/>
	<polygon style="fill:#877EFF;" points="236.153,219.179 282.282,133.371 196.48,179.507 	"/>
	<path style="fill:#ffffff;" d="M322.198,98.284c-3.139-5.839-10.414-8.025-16.252-4.887l-135.065,72.625
		c-2.073,1.115-3.773,2.814-4.887,4.888L93.398,305.945c-2.568,4.777-1.568,10.518,2.08,14.166c0.809,0.81,1.748,1.516,2.809,2.085
		c3.608,1.94,7.766,1.84,11.156,0.105l0.002,0.003l0.051-0.027c0.049-0.025,0.097-0.052,0.145-0.078l135.131-72.572
		c2.074-1.114,3.773-2.813,4.889-4.887l72.305-134.701c0.158-0.272,0.309-0.547,0.445-0.83l0.098-0.181l-0.012-0.004
		C324.034,105.711,324.059,101.747,322.198,98.284z M133.371,282.278l46.131-85.808l39.67,39.671L133.371,282.278z M236.153,219.179
		l-39.672-39.672l85.801-46.136L236.153,219.179z"/>
</g>
</svg>