<?xml version="1.0" encoding="iso-8859-1"?>
<!-- Uploaded to: SVG Repo, www.svgrepo.com, Generator: SVG Repo Mixer Tools -->
<svg fill="#5C5C7B" height="328px" width="328px" version="1.1" id="Layer_1" xmlns="http://www.w3.org/2000/svg" xmlns:xlink="http://www.w3.org/1999/xlink" 
	 viewBox="0 0 328 328" xml:space="preserve">
<g id="XMLID_486_">
	<path id="XMLID_487_" d="M115,126.75c34.601,0,62.751-28.149,62.751-62.749C177.751,29.4,149.601,1.25,115,1.25
		c-34.601,0-62.75,28.15-62.75,62.751C52.25,98.601,80.399,126.75,115,126.75z M115,31.25c18.059,0,32.751,14.692,32.751,32.751
		c0,18.058-14.692,32.749-32.751,32.749c-18.059,0-32.75-14.691-32.75-32.749C82.25,45.942,96.941,31.25,115,31.25z"/>
	<path id="XMLID_352_" d="M217.394,262.357c2.929,2.928,6.768,4.393,10.606,4.393c3.839,0,7.678-1.465,10.607-4.394
		c5.857-5.858,5.857-15.356-0.001-21.214l-19.393-19.391l19.395-19.396c5.857-5.858,5.857-15.356-0.001-21.214
		c-5.858-5.857-15.356-5.856-21.214,0.001l-30,30.002c-2.813,2.814-4.393,6.629-4.393,10.607c0,3.979,1.58,7.794,4.394,10.607
		L217.394,262.357z"/>
	<path id="XMLID_491_" d="M223,116.75c-34.488,0-65.144,16.716-84.297,42.47c-7.763-1.628-15.695-2.47-23.703-2.47
		c-63.411,0-115,51.589-115,115c0,8.284,6.716,15,15,15h125.596c19.247,24.348,49.031,40,82.404,40c57.897,0,105-47.103,105-105
		S280.897,116.75,223,116.75z M31.325,256.75c7.106-39.739,41.923-70,83.675-70c2.965,0,5.914,0.165,8.841,0.467
		c-3.779,10.82-5.841,22.44-5.841,34.533c0,12.268,2.122,24.047,6.006,35H31.325z M223,296.75c-41.355,0-75-33.645-75-75
		s33.645-75,75-75s75,33.645,75,75S264.355,296.75,223,296.75z"/>
</g>
</svg>