<?xml version="1.0" encoding="iso-8859-1"?>
<!-- Uploaded to: SVG Repo, www.svgrepo.com, Generator: SVG Repo Mixer Tools -->
<svg fill="#877EFF" height="800px" width="800px" version="1.1" id="Layer_1" xmlns="http://www.w3.org/2000/svg" xmlns:xlink="http://www.w3.org/1999/xlink" 
	 viewBox="0 0 368.373 368.373" xml:space="preserve">
<g id="XMLID_107_">
	<path id="XMLID_108_" d="M368.373,241.936c0-57.897-47.102-105-105-105c-34.485,0-65.14,16.713-84.293,42.463
		c-7.653-1.61-15.582-2.463-23.707-2.463c-8.643,0-17.064,0.965-25.165,2.781c-38.121,8.543-69.149,36.066-82.606,72.092
		c-4.669,12.5-7.229,26.02-7.229,40.127c0,8.284,6.716,15,15,15h125.596c19.246,24.348,49.03,40,82.404,40
		C321.271,346.936,368.373,299.834,368.373,241.936z M188.373,241.936c0-20.01,7.892-38.199,20.708-51.662
		c13.67-14.359,32.946-23.338,54.292-23.338c41.355,0,75,33.645,75,75s-33.645,75-75,75c-13.592,0-26.339-3.652-37.344-10
		C203.549,293.97,188.373,269.7,188.373,241.936z"/>
	<path id="XMLID_138_" d="M32.622,84.187c0,23.666,18.367,43.109,41.594,44.857c-7.382-13.302-11.594-28.596-11.594-44.857
		s4.212-31.556,11.594-44.857C50.989,41.077,32.622,60.521,32.622,84.187z"/>
	<path id="XMLID_169_" d="M15,251.809h1.025c11.601-40.229,40.192-73.322,77.464-90.984c-5.17-1.077-10.482-1.639-15.867-1.639
		C34.821,159.186,0,194.008,0,236.809C0,245.094,6.716,251.809,15,251.809z"/>
	<path id="XMLID_197_" d="M218.123,84.187c0-34.601-28.149-62.75-62.75-62.75c-21.093,0-39.774,10.473-51.157,26.479
		c-7.289,10.25-11.594,22.764-11.594,36.271s4.305,26.021,11.594,36.271c11.383,16.006,30.065,26.478,51.157,26.478
		C189.974,146.936,218.123,118.787,218.123,84.187z"/>
	<path id="XMLID_221_" d="M293.373,256.936c8.284,0,15-6.716,15-15c0-8.284-6.716-15-15-15h-43.2h-16.8c-8.284,0-15,6.716-15,15
		c0,8.284,6.716,15,15,15h31.546H293.373z"/>
</g>
</svg>